# xmcd
#
# Track frame offsets:
#	150
#	4188
#	24144
#	41178
#	58906
#	75091
#	91677
#	116287
#	132406
#	152307
#	167771
#	185598
#	203475
#	221418
#	246066
#
# Disc length: 3336 seconds
#
# Revision: 1
# Processed by: cddbd v1.5.2PL0 Copyright (c) Steve Scherf et al.
# Submitted via: EasyCDDAExtractor 5.0.6
#
DISCID=ae0d060f
DTITLE=The Flood - everybody's favourite
DYEAR=2008
DGENRE=Country
TTITLE0=nick and elliott
TTITLE1=country girl
TTITLE2=come tomorrow
TTITLE3=like love
TTITLE4=can't work no longer
TTITLE5=eveybody's favourite
TTITLE6=rockdale
TTITLE7=serve you well
TTITLE8=golden hills
TTITLE9=too many people
TTITLE10=down the river
TTITLE11=hey brother
TTITLE12=all your time
TTITLE13=it's you
TTITLE14=nick and elliott (reprise)
EXTD=
EXTT0=
EXTT1=
EXTT2=
EXTT3=
EXTT4=
EXTT5=
EXTT6=
EXTT7=
EXTT8=
EXTT9=
EXTT10=
EXTT11=
EXTT12=
EXTT13=
EXTT14=
PLAYORDER=
